<?xml version="1.0" encoding="utf-8"?>
<!-- Generator: Adobe Illustrator 27.5.0, SVG Export Plug-In . SVG Version: 6.00 Build 0)  -->
<svg version="1.1" xmlns="http://www.w3.org/2000/svg" xmlns:xlink="http://www.w3.org/1999/xlink" x="0px" y="0px"
	 viewBox="0 0 500 500" style="enable-background:new 0 0 500 500;" xml:space="preserve">
<g id="BACKGROUND">
	<rect style="fill:#FFFFFF;" width="500" height="500"/>
</g>
<g id="OBJECTS">
	<ellipse style="fill:#EEEFFF;" cx="256.843" cy="445.575" rx="177.184" ry="15.417"/>
	<g>
		<path style="fill:#D2D3FF;" d="M196.289,404.646c-9.821-1.654-19.548-3.854-29.122-6.603
			c-36.187-10.393-71.919-29.842-90.72-62.459c-18.878-32.743-17.753-73.021-13.578-110.586c1.698-15.284,4.043-30.911,7.492-46.219
			c8.881-39.46,25.071-76.836,56.442-101.03c0.137-0.112,0.28-0.218,0.424-0.33c32.09-24.539,74.61-30.72,115.118-28.977
			c1.566,0.064,3.132,0.142,4.689,0.234c24.299,1.403,49.014,5.524,71.795,13.917c17.82,6.569,34.45,15.754,48.77,28.296
			c34.014,29.79,50.97,75.335,55.179,120.359c3.517,37.532,5.883,82.653-8.183,118.122c-7.835,19.763-20.774,36.531-41.452,47.326
			c-26.391,13.775-55.066,23.191-84.496,28.022c-8.705,1.428-17.476,2.456-26.268,3.067
			C240.31,409.349,218.072,408.331,196.289,404.646z"/>
		
			<ellipse transform="matrix(0.0682 -0.9977 0.9977 0.0682 226.4975 509.045)" style="fill:#EEEFFF;" cx="385.767" cy="133.267" rx="29.325" ry="25.488"/>
		
			<ellipse transform="matrix(0.0682 -0.9977 0.9977 0.0682 -49.3158 367.4494)" style="fill:#EEEFFF;" cx="172.056" cy="210.126" rx="29.325" ry="25.488"/>
		<path style="fill:#EEEFFF;" d="M387.442,211.41c-7.006,0.672-13.312-5.319-14.085-13.38c-0.773-8.061,4.281-15.14,11.287-15.811
			c7.006-0.671,13.312,5.319,14.085,13.38C399.502,203.66,394.448,210.739,387.442,211.41z"/>
		<path style="fill:#EEEFFF;" d="M288.648,404.72c-0.227-12.317,1.577-25.478,1.717-37.597
			c0.372-31.987-13.235-62.512-29.596-90.005c-16.369-27.486-35.801-53.274-49.09-82.379c-13.281-29.104-19.997-62.96-9.398-93.143
			c7.491-21.329,22.565-38.396,40.065-53.152c1.566,0.064,3.132,0.142,4.689,0.234c24.299,1.403,49.014,5.524,71.795,13.917
			c-4.053,2.621-7.812,5.678-11.177,9.149c-15.884,16.423-22.245,41.473-16.103,63.476c6.135,22.003,23.028,39.081,38.952,55.455
			c25.031,25.733,49.491,52.697,66.101,84.517c8.809,16.877,15.257,35.358,17.994,54.18c-7.835,19.763-20.774,36.531-41.452,47.326
			C346.754,390.474,318.079,399.889,288.648,404.72z"/>
		<path style="fill:#EEEFFF;" d="M196.289,404.646c-5.457-7.058-11.59-13.653-17.967-19.741
			c-20.51-19.585-44.273-35.85-62.658-57.449c-31.391-36.891-44.388-86.627-45.33-135.057c-0.084-4.546-0.075-9.086,0.027-13.619
			c8.881-39.46,25.071-76.836,56.442-101.03c9.094,19.221,6.948,43.993,1.361,65.395c-7.085,27.152-18.388,54.727-13.289,82.325
			c4.8,25.993,23.579,47.288,44.424,63.547c20.837,16.258,44.381,28.914,64.506,46.048c20.117,17.141,37.179,40.357,38.603,66.75
			c0.108,1.987,0.101,3.981-0.028,5.973C240.31,409.349,218.072,408.331,196.289,404.646z"/>
	</g>
	<g>
		<path style="fill:#020B2A;" d="M193.726,153.328c1.538-0.246,3.087-0.43,4.639-0.56c3.115-0.262,6.244-0.308,9.368-0.255
			c6.299,0.107,12.584,0.611,18.885,0.628c6.414,0.018,12.848-0.634,19.254-0.094c1.025,0.086,2.402,0.377,3.329-0.22
			c1.072-0.69,0.507-2.18,0.056-3.077c-1.3-2.587-2.999-5.047-4.779-7.325c-0.906-1.16-1.862-2.282-2.861-3.363
			c-0.963-1.042-1.958-2.104-3.205-2.808c-2.215-1.249-4.882-1.093-7.354-0.843c-0.389,0.043-0.779,0.083-1.169,0.126
			c-2.133,0.238-4.263,0.546-6.366,0.98c-3.647,0.752-7.177,1.961-10.633,3.332c-3.487,1.383-6.934,2.879-10.347,4.435
			c-5.298,2.414-10.824,5.253-14.337,10.047c0.336,0.024,0.681-0.023,1.017-0.094C190.725,153.924,192.209,153.571,193.726,153.328z
			"/>
		<path style="fill:#020B2A;" d="M225.418,154.491c-6.583-0.117-13.152-0.682-19.739-0.692c-3.26-0.005-6.526,0.127-9.764,0.525
			c-1.629,0.2-3.251,0.474-4.853,0.834c-0.148,0.033-0.298,0.071-0.45,0.108c1.545,0.708,3.175,1.206,4.85,1.539
			c2.298,0.457,4.637,0.648,6.958,0.947c9.468,1.22,18.832,3.186,28.336,4.133c2.345,0.234,4.698,0.408,7.053,0.482
			c2.057,0.064,4.253,0.044,6.122-0.931c2.711-1.415,4.025-4.254,5.08-7.023c-1.072,0.287-2.223,0.128-3.318,0.042
			C238.945,153.93,232.177,154.611,225.418,154.491z"/>
		<path style="fill:#020B2A;" d="M347.609,237.56c-0.399-4.695-0.847-9.387-1.339-14.073c-0.49-4.672-0.936-9.371-1.924-13.97
			c-0.928-4.324-2.368-8.517-4.087-12.587c-0.861-2.037-1.748-4.059-2.697-6.057c-0.341-0.718-0.666-1.442-0.988-2.167
			c0.133,0.798-1.118,1.11-1.374,0.277c-0.348-1.136-0.708-2.269-1.082-3.397c-3.025-9.139-6.887-17.993-11.514-26.434
			c-4.632-8.451-10.007-16.569-16.152-23.999c-2.996-3.622-6.352-6.797-10.446-9.147c-3.798-2.18-7.966-3.647-12.242-4.557
			c-8.622-1.836-17.749-1.509-26.303,0.533c-8.46,2.019-16.269,6.018-22.697,11.89c0.475,0.03,0.949,0.075,1.418,0.154
			c0.045-0.001,0.089-0.003,0.134-0.004c0.102-0.003,0.177,0.028,0.239,0.072c0.1,0.021,0.202,0.032,0.301,0.055
			c1.482,0.349,2.783,1.086,3.928,2.079c1.154,1.002,2.176,2.174,3.169,3.333c0.997,1.164,1.944,2.371,2.842,3.613
			c0.909,1.258,1.764,2.556,2.561,3.889c0.732,1.225,1.597,2.532,1.811,3.97c0.089,0.598,0.023,1.185-0.183,1.707
			c0.026,0.107,0.032,0.224-0.011,0.36c-1.257,3.96-3.15,8.409-7.314,10.004c-2.112,0.809-4.456,0.748-6.678,0.655
			c-0.489-0.021-0.977-0.061-1.466-0.089c-0.036,0.587-0.016,1.181,0.091,1.759c0.56,3.024,2.684,5.351,4.913,7.322
			c2.382,2.106,4.833,4.102,7.083,6.356c1.149,1.151,2.26,2.339,3.332,3.561c0.983,1.121,2.016,2.367,1.156,3.891
			c-0.372,0.659-0.952,1.231-1.475,1.77c-0.535,0.552-1.099,1.075-1.679,1.579c-1.171,1.017-2.408,1.955-3.642,2.892
			c-5.077,3.855-9.968,7.946-14.636,12.288c-4.656,4.331-9.092,8.897-13.286,13.676c-2.124,2.421-4.194,4.899-5.992,7.576
			c-0.884,1.316-1.687,2.682-2.454,4.069c-0.383,0.692-0.736,1.399-1.113,2.094c-0.389,0.714-0.816,1.406-1.203,2.122
			c-0.077,0.143-0.211,0.185-0.339,0.165c-0.076,0.126-0.151,0.253-0.227,0.379c-3.083,5.117-6.165,10.235-9.248,15.352
			c-2.94,4.88-5.856,9.78-9.02,14.52c-3.1,4.645-6.474,9.088-10.198,13.253c-3.664,4.098-7.597,7.947-11.624,11.686
			c-8.525,7.916-17.292,15.58-25.957,23.343c-8.93,8-17.861,15.999-26.821,23.966c-0.917,0.815-2.271,1.699-2.711,2.903
			c-0.424,1.161,0.731,1.479,1.636,1.419c1.115-0.074,2.251-0.503,3.308-0.843c1.236-0.398,2.457-0.853,3.647-1.372
			c3.878-1.689,7.465-3.945,10.714-6.637c0.781-0.699,1.566-1.394,2.362-2.077c0.258-0.221,0.592,0.114,0.371,0.372
			c-0.081,0.095-0.167,0.184-0.248,0.278c0.075,0.144,0.073,0.326-0.075,0.484c-0.865,0.918-1.766,1.807-2.731,2.621
			c-0.12,0.101-0.246,0.195-0.367,0.295c-0.008,0.008-0.016,0.017-0.024,0.025c-4.753,4.735-9.951,9.074-15.286,13.134
			c-5.419,4.124-11.069,7.956-16.926,11.43c-2.898,1.719-5.845,3.358-8.835,4.911c-1.495,0.777-3.001,1.533-4.518,2.267
			c-0.772,0.374-1.566,0.713-2.321,1.121c-0.507,0.274-1.093,0.61-1.368,1.14c-0.735,1.413,1.486,2.496,2.459,2.967
			c1.482,0.717,3.102,1.141,4.726,1.385c3.382,0.509,6.9,0.258,10.279-0.153c13.755-1.675,26.409-7.999,38.557-14.293
			c5.828-3.02,11.666-6.011,17.537-8.944c5.713-2.854,11.422-5.725,16.989-8.858c10.888-6.128,21.339-13.378,29.31-23.122
			c0.57-0.697,1.553,0.298,0.988,0.988c-0.988,1.208-2,2.391-3.064,3.533c-4.943,5.307-10.61,9.816-16.633,13.818
			c0.023,0.893,0.744,1.597,1.56,1.895c1.02,0.373,2.173,0.203,3.209-0.006c2.005-0.406,3.972-1.101,5.817-1.983
			c3.371-1.611,6.418-3.829,9.296-6.192c3.101-2.547,6.066-5.259,8.931-8.069c5.791-5.681,11.166-11.766,16.515-17.86
			c0.604-0.689,1.604,0.32,1.004,1.004c-3.167,3.609-6.341,7.213-9.607,10.733c-5.698,6.142-11.684,12.143-18.378,17.208
			c-1.471,1.113-3.002,2.16-4.598,3.09c0.012,0.031,0.024,0.062,0.027,0.101c0.136,1.466,0.281,2.935,0.542,4.384
			c0.21,1.169,0.445,2.386,1.041,3.429c1.194,2.087,3.805,2.039,5.913,1.889c0.274-0.02,0.617,0.227,0.661,0.503
			c0.497,3.129,0.995,6.886,3.922,8.738c0.431,0.273,0.392,0.768,0.146,1.076c0.084,1.838,0.092,3.679,0.195,5.517
			c0.193,3.417,0.624,6.805,1.144,10.186c0.243,1.579,0.451,3.172,0.764,4.739c0.254,1.276,0.633,2.564,1.588,3.498
			c0.384,0.376,0.19,0.869-0.164,1.087c0.057,0.725,0.087,1.452,0.18,2.176c0.106,0.824,0.256,1.64,0.399,2.458
			c0.288,1.635,0.633,3.259,0.931,4.892c1.047,5.745,1.797,11.572,1.957,17.414c0.079,2.898,0.02,5.8-0.213,8.69
			c-0.232,2.88-0.815,5.725-0.605,8.623c0.05,0.693-0.982,0.797-1.184,0.187c-0.665,0.653-1.559,1.046-2.524,1.283
			c-1.821,0.446-3.75,0.492-5.606,0.72c-1.92,0.236-3.835,0.505-5.743,0.826c-0.956,0.161-1.91,0.333-2.861,0.517
			c-0.793,0.153-1.645,0.275-2.343,0.708c-0.653,0.405-1.075,1.089-1.42,1.756c-0.397,0.768-0.704,1.577-0.934,2.41
			c-0.182,0.662-0.427,1.469,0.199,1.968c0.55,0.439,1.291,0.46,1.943,0.29c0.808-0.211,1.533-0.644,2.273-1.018
			c0.821-0.415,1.657-0.802,2.504-1.161c1.652-0.701,3.343-1.302,5.072-1.786c1.72-0.482,3.472-0.849,5.241-1.101
			c1.631-0.232,3.469-0.578,4.98,0.279c0.318,0.18,0.388,0.475,0.314,0.74c1.198,0.996,1.871,2.506,2.656,3.842
			c0.997,1.698,2.501,3.023,4.403,3.61c2.064,0.637,4.25,0.277,6.335-0.052c1.886-0.298,3.767-0.553,5.673-0.28
			c1.913,0.275,3.483,1.188,4.727,2.656c0.997,1.177,2.163,2.999,3.956,2.821c0.817-0.081,1.195-0.785,1.413-1.498
			c0.284-0.93,0.523-1.927,0.516-2.904c-0.014-1.922-1.503-3.056-3.14-3.741c-1.856-0.776-3.881-1.052-5.873-1.196
			c-1.072-0.077-2.146-0.12-3.219-0.171c-1.132-0.053-2.364,0.033-3.439-0.347c-0.475-0.168-0.544-0.898,0-1.035
			c0.717-0.181,1.371-0.135,2.103-0.101c0.683,0.032,1.366,0.064,2.049,0.096c1.263,0.059,2.527,0.115,3.785,0.25
			c2.32,0.248,4.808,0.723,6.774,2.056c0.78,0.529,1.5,1.208,1.912,2.07c0.089,0.186,0.15,0.377,0.211,0.568
			c0.167-0.125,0.334-0.249,0.486-0.394c0.303-0.288,0.574-0.602,0.796-0.957c0.464-0.742,0.695-1.579,0.632-2.454
			c-0.287-4.044-5.67-3.649-8.524-3.595c-1.951,0.037-3.911,0.091-5.846-0.209c-0.87-0.135-1.733-0.329-2.554-0.651
			c-0.742-0.292-1.642-0.745-2.143-1.381c-0.092-0.116-0.009-0.286,0.147-0.252c0.524,0.113,1.016,0.355,1.536,0.496
			c0.531,0.144,1.061,0.285,1.598,0.404c1.086,0.24,2.199,0.336,3.31,0.369c2.198,0.064,4.394-0.15,6.592-0.104
			c0.768,0.016,1.569,0.057,2.353,0.177c-0.074-0.357-0.061-0.724-0.087-1.092c-0.027-0.377-0.082-0.748-0.184-1.112
			c-0.209-0.745-0.643-1.356-1.444-1.503c-0.986-0.181-2.102,0.058-3.091,0.137c-1.039,0.083-2.079,0.156-3.121,0.201
			c-2.084,0.089-4.199,0.049-6.248-0.379c-1.628-0.34-3.266-0.934-4.652-1.866c-0.838-0.563-1.712-1.283-2.351-2.139
			c-0.33,0.079-0.728-0.05-0.829-0.435c-0.41-1.57-0.578-3.229-0.804-4.834c-0.221-1.566-0.42-3.134-0.596-4.706
			c-0.634-5.686-0.971-11.412-0.961-17.133c0.005-2.836,0.082-5.676,0.273-8.505c0.14-2.07,0.396-4.111,0.915-6.102
			c-0.055-0.078-0.096-0.168-0.105-0.271c-0.101-1.203,0.429-2.424,0.863-3.523c0.452-1.146,0.971-2.263,1.501-3.375
			c0.922-1.933,1.832-3.859,2.509-5.895c0.682-2.052,1.183-4.16,1.552-6.289c0.375-2.161,0.614-4.345,0.776-6.532
			c0.081-1.089,0.159-2.177,0.218-3.267c0.057-1.054,0.09-2.115,0.244-3.16c-0.615-0.156-1.221-0.345-1.805-0.6
			c-0.289-0.126-0.146-0.629,0.162-0.599c1.693,0.162,3.382,0.345,5.082,0.419c1.677,0.073,3.357,0.045,5.036,0.039
			c6.299-0.023,12.601,0.05,18.9-0.035c3.067-0.042,6.098-0.28,9.089-0.99c2.249-0.534,4.701-1.306,6.07-3.31
			c0.506-0.741,1.705-0.063,1.217,0.711c-0.247,0.392-0.54,0.734-0.851,1.055c0.131,3.162-0.728,6.286-1.563,9.315
			c-0.794,2.881-1.623,5.814-1.635,8.825c-0.011,2.745,0.796,5.32,2.207,7.661c2.789,4.626,7.165,8.003,10.175,12.461
			c0.038,0.056,0.052,0.121,0.067,0.184c0.993,0.515,1.922,1.26,2.717,1.966c1.183,1.051,2.067,2.375,2.82,3.756
			c1.374,2.522,2.644,5.113,3.911,7.691c1.281,2.606,2.508,5.239,3.628,7.919c1.11,2.656,2.108,5.361,2.921,8.123
			c0.805,2.737,1.535,5.597,1.784,8.446c0.038,0.439-0.354,0.675-0.73,0.668c-0.044,0.104-0.089,0.207-0.142,0.308
			c-0.613,1.163-1.691,1.976-2.759,2.7c-1.185,0.803-2.46,1.442-3.795,1.952c-2.287,0.873-5.138,1.606-6.192,4.086
			c-0.399,0.938-0.461,2.169,0.316,2.941c0.925,0.919,2.164-0.171,2.877-0.824c0.97-0.888,1.936-1.752,3.113-2.362
			c1.228-0.637,2.563-0.964,3.948-0.945c1.548,0.021,3.072,0.394,4.577,0.72c1.552,0.336,3.103,0.676,4.648,1.046
			c2.664,0.637,5.451,1.334,7.454,3.329c0.909,0.905,1.6,2.002,2.062,3.197c0.464,1.201,0.562,2.474,0.674,3.744
			c0.102,1.161,0.223,2.468,0.989,3.408c0.379,0.465,0.695,0.459,1.022-0.043c0.355-0.545,0.528-1.232,0.695-1.854
			c0.375-1.401,0.526-2.873,0.39-4.32c-0.136-1.445-0.788-2.541-1.864-3.488c-2.171-1.91-4.695-3.511-7.23-4.887
			c-0.785-0.426-0.083-1.626,0.7-1.197c0.669,0.366,1.329,0.746,1.978,1.146c1.349,0.829,2.644,1.736,3.891,2.712
			c0.955,0.747,1.974,1.527,2.693,2.524c0.146-0.101,0.336-0.147,0.557-0.095c0.802,0.188,1.6,0.39,2.4,0.587
			c0.609,0.15,1.229,0.278,1.812,0.516c1.236,0.504,1.927,1.488,1.953,2.832c0.016,0.85-0.573,2.657,0.445,3.157
			c0.758,0.373,1.23-1.51,1.388-1.97c0.376-1.095,0.683-2.303,0.469-3.464c-0.179-0.975-0.727-1.785-1.514-2.378
			c-0.814-0.613-1.779-1.004-2.732-1.343c-1.159-0.412-2.331-0.782-3.483-1.214c-1.248-0.468-2.484-0.963-3.711-1.483
			c-0.627-0.266-1.256-0.537-1.858-0.855c-0.603-0.318-1.175-0.689-1.778-1.003c-0.264-0.138-0.076-0.596,0.205-0.485
			c0.787,0.311,1.616,0.518,2.409,0.818c0.772,0.292,1.54,0.592,2.313,0.882c1.548,0.58,3.113,1.116,4.685,1.624
			c2.119,0.684,4.513,1.311,5.921,3.178c0.02,0.026,0.035,0.054,0.054,0.081c0.124-0.367,0.275-0.731,0.376-1.102
			c0.154-0.565,0.268-1.142,0.322-1.725c0.085-0.922,0.257-2.355-0.533-3.033c-0.657-0.565-1.685-0.67-2.498-0.855
			c-1.156-0.264-2.312-0.527-3.468-0.791c-2.255-0.514-4.509-1.028-6.763-1.543c-1.029-0.235-2.073-0.439-3.038-0.881
			c-0.895-0.41-1.618-1.078-2.231-1.838c-0.653-0.81-1.246-1.663-1.76-2.568c-0.104-0.183-0.197-0.367-0.289-0.552
			c-0.296,0.065-0.655-0.033-0.781-0.319c-1.347-3.054-2.744-6.086-4.194-9.093c-2.556-5.3-5.272-10.522-8.143-15.658
			c-1.434-2.564-2.893-5.113-4.354-7.661c-1.025-1.786-2.244-3.871-2.416-6.007c-0.032,0.031-0.059,0.064-0.093,0.093
			c-0.423,0.367-1.306,0.024-1.051-0.612c0.237-0.59,0.621-1.08,0.966-1.611c0.327-0.504,0.642-1.016,0.941-1.538
			c0.59-1.03,1.122-2.097,1.543-3.207c0.8-2.108,1.152-4.29,1.155-6.541c0.003-2.358-0.289-4.706-0.467-7.054
			c-0.16-2.111-0.207-4.233,0.082-6.335c0.141-1.024,0.379-2.118,0.773-3.137c-0.305,0.268-0.619,0.526-0.958,0.752
			c-0.196,0.131-0.434-0.125-0.317-0.317c0.589-0.975,1.359-1.829,2.09-2.703c0.729-0.872,1.444-1.757,2.146-2.651
			c1.399-1.781,2.746-3.602,4.043-5.46c4.655-6.671,8.556-13.846,12.186-21.115c1.822-3.648,3.574-7.33,5.323-11.014
			c1.006-2.119,2.012-4.239,3.019-6.358c0.498-1.05,0.997-2.1,1.495-3.149c0.184-0.388,0.369-0.777,0.553-1.165
			c0.127-0.521,0.281-1.036,0.454-1.547c-0.193-0.617,0.332-1.628,1.2-1.177c1.227,0.638,0.145,2.315-0.302,3.194
			c-0.503,2.137-0.61,4.35-0.291,6.535c0.58-0.219,1.151-0.456,1.705-0.739c6.726-3.439,10.763-10.531,14.313-16.885
			c4.177-7.479,7.794-15.336,9.957-23.649c1.069-4.107,1.771-8.307,1.984-12.548C348.337,246.946,348.007,242.241,347.609,237.56z"
			/>
	</g>
</g>
</svg>
